<svg aria-hidden="true" style="position: absolute; width: 0; height: 0; overflow: hidden;" version="1.1" xmlns="http://www.w3.org/2000/svg" xmlns:xlink="http://www.w3.org/1999/xlink">
<defs>
<symbol id="icon-icon-instagram" viewBox="0 0 32 32">
<path d="M16 2.883c4.272 0 4.779 0.016 6.467 0.094 4.336 0.197 6.36 2.254 6.558 6.558 0.077 1.686 0.091 2.192 0.091 6.464 0 4.275-0.016 4.781-0.091 6.467-0.198 4.299-2.219 6.36-6.56 6.558-1.686 0.077-2.192 0.093-6.466 0.093-4.272 0-4.779-0.016-6.464-0.093-4.349-0.198-6.363-2.266-6.56-6.56-0.077-1.686-0.093-2.192-0.093-6.466 0-4.272 0.016-4.778 0.093-6.464 0.198-4.304 2.219-6.363 6.56-6.56 1.686-0.077 2.192-0.093 6.464-0.093zM16 0c-4.346 0-4.89 0.019-6.597 0.096-5.81 0.267-9.040 3.491-9.306 9.307-0.082 1.707-0.098 2.251-0.098 6.597s0.019 4.891 0.096 6.597c0.267 5.811 3.491 9.040 9.307 9.307 1.707 0.077 2.251 0.096 6.597 0.096s4.891-0.019 6.597-0.096c5.806-0.267 9.043-3.491 9.306-9.307 0.080-1.706 0.098-2.251 0.098-6.597s-0.019-4.89-0.096-6.595c-0.261-5.806-3.488-9.040-9.306-9.309-1.707-0.080-2.253-0.096-6.598-0.096zM16 7.784c-4.538 0-8.216 3.678-8.216 8.216s3.678 8.216 8.216 8.216v0c4.538 0 8.216-3.678 8.216-8.216s-3.678-8.216-8.216-8.216v0zM16 21.333c-2.945 0-5.333-2.388-5.333-5.333s2.388-5.333 5.333-5.333v0c2.945 0 5.333 2.388 5.333 5.333s-2.388 5.333-5.333 5.333v0zM24.541 5.541c-1.060 0-1.92 0.86-1.92 1.92s0.86 1.92 1.92 1.92v0c1.060 0 1.92-0.86 1.92-1.92s-0.86-1.92-1.92-1.92v0z"></path>
</symbol>
<symbol id="icon-icon-pinterest" viewBox="0 0 32 32">
<path d="M16 0c-8.837 0-16 7.163-16 16 0 6.779 4.218 12.568 10.17 14.899-0.141-1.266-0.267-3.208 0.056-4.589 0.29-1.248 1.875-7.952 1.875-7.952s-0.478-0.96-0.478-2.378c0-2.224 1.29-3.885 2.896-3.885 1.363 0 2.022 1.024 2.022 2.253 0 1.373-0.874 3.424-1.325 5.328-0.378 1.592 0.8 2.891 2.368 2.891 2.845 0 5.030-2.998 5.030-7.328 0-3.829-2.752-6.509-6.682-6.509-4.552 0-7.226 3.416-7.226 6.944 0 1.374 0.53 2.85 1.192 3.65 0.080 0.086 0.129 0.201 0.129 0.328 0 0.047-0.007 0.093-0.020 0.137l0.001-0.003-0.445 1.813c-0.070 0.293-0.232 0.357-0.536 0.214-1.998-0.93-3.248-3.851-3.248-6.198 0-5.046 3.667-9.683 10.573-9.683 5.55 0 9.864 3.957 9.864 9.242 0 5.515-3.477 9.952-8.304 9.952-1.621 0-3.144-0.84-3.666-1.837l-0.997 3.805c-0.362 1.39-1.336 3.133-1.99 4.194 1.499 0.464 3.090 0.714 4.739 0.714 8.837 0 16-7.163 16-16s-7.163-16-16-16z"></path>
</symbol>
<symbol id="icon-icon-twitter" viewBox="0 0 38 32">
<path d="M37.647 4.088c-1.292 0.589-2.791 1.017-4.362 1.209l-0.074 0.007c1.598-0.966 2.8-2.452 3.382-4.218l0.016-0.055c-1.412 0.853-3.055 1.503-4.806 1.858l-0.099 0.017c-1.41-1.503-3.41-2.44-5.627-2.44-0.004 0-0.007 0-0.011 0h0.001c-4.988 0-8.651 4.653-7.526 9.481-6.434-0.331-12.093-3.387-15.888-8.027l-0.031-0.039c-0.657 1.113-1.045 2.452-1.045 3.882 0 2.669 1.352 5.022 3.408 6.412l0.027 0.017c-1.29-0.042-2.489-0.395-3.536-0.986l0.038 0.020c-0.085 3.576 2.481 6.925 6.195 7.671-0.608 0.172-1.307 0.271-2.029 0.271-0.516 0-1.021-0.050-1.508-0.147l0.049 0.008c1.016 3.093 3.85 5.298 7.208 5.363l0.008 0c-2.612 2.063-5.952 3.309-9.583 3.309-0.653 0-1.297-0.040-1.928-0.119l0.076 0.008c3.341 2.175 7.428 3.469 11.818 3.469 0.008 0 0.015 0 0.023 0h-0.001c14.34 0 22.443-12.111 21.954-22.974 1.517-1.106 2.795-2.431 3.818-3.943l0.035-0.056z"></path>
</symbol>
<symbol id="icon-logo" viewBox="0 0 165 32">
<path d="M7.809 24.944c2.184 0 3.993-0.48 5.427-1.44 1.433-0.961 2.151-2.359 2.151-4.192-0.111-2.473-1.952-4.328-5.525-5.564l-1.92-0.796c-0.419-0.133-0.717-0.264-0.893-0.397-0.16-0.109-0.264-0.291-0.264-0.497 0-0 0-0 0-0v0c0-0.552 0.364-0.827 1.092-0.827 0.904 0 1.576 0.463 2.017 1.391l4.931-1.392c-1.191-2.96-3.485-4.439-6.883-4.439-2.029 0-3.717 0.531-5.063 1.591-1.345 1.059-2.019 2.44-2.019 4.139 0 0.531 0.077 1.021 0.232 1.475s0.387 0.851 0.695 1.192c0.309 0.343 0.607 0.64 0.893 0.895 0.287 0.253 0.651 0.492 1.093 0.712 0.44 0.221 0.776 0.381 1.008 0.48 0.232 0.1 0.547 0.216 0.943 0.348l0.563 0.2 1.987 0.728c0.484 0.177 0.8 0.325 0.943 0.447 0.131 0.111 0.214 0.275 0.214 0.459 0 0.008-0 0.015-0 0.023l0-0.001c0 0.575-0.539 0.863-1.62 0.863-1.588 0-2.537-0.707-2.845-2.12l-4.964 1.127c0.617 3.733 3.221 5.6 7.809 5.6zM23.324 24.944c2.184 0 3.793-0.84 4.831-2.517v2.153h6.816v-17.425h-6.816v9.541c0 1.965-0.673 2.947-2.019 2.947-1.368 0-2.052-0.981-2.052-2.947v-9.541h-6.816v10.204c0 5.057 2.019 7.587 6.056 7.587zM44.795 24.58v-9.54c0-1.967 0.672-2.949 2.017-2.949 1.368 0 2.053 0.983 2.053 2.949v9.54h6.815v-10.203c0-5.057-2.017-7.587-6.055-7.587-2.184 0-3.795 0.84-4.831 2.517v-2.153h-6.817v17.425h6.817zM65.305 24.58v-9.54c0-1.967 0.672-2.949 2.019-2.949 1.367 0 2.051 0.983 2.051 2.949v9.54h6.817v-10.203c0-5.057-2.019-7.587-6.056-7.587-2.184 0-3.795 0.84-4.831 2.517v-2.153h-6.817v17.425h6.817zM86.611 32l11.052-24.845h-7.116l-3.376 8.912-3.011-8.912h-7.445l7.247 15.736-4.036 9.109h6.685zM104.837 24.944c2.184 0 3.993-0.48 5.427-1.44 1.435-0.961 2.152-2.359 2.152-4.192-0.111-2.473-1.953-4.328-5.527-5.564l-1.92-0.796c-0.419-0.133-0.716-0.264-0.893-0.397-0.16-0.109-0.264-0.291-0.264-0.497 0-0 0-0 0-0v0c0-0.552 0.364-0.827 1.092-0.827 0.904 0 1.577 0.463 2.019 1.391l4.931-1.392c-1.192-2.96-3.485-4.439-6.883-4.439-2.029 0-3.717 0.531-5.063 1.591-1.347 1.060-2.019 2.44-2.019 4.14 0 0.531 0.077 1.021 0.231 1.475 0.155 0.453 0.387 0.851 0.696 1.192 0.308 0.343 0.607 0.64 0.893 0.895 0.287 0.253 0.651 0.492 1.092 0.712 0.44 0.221 0.777 0.381 1.009 0.48 0.231 0.1 0.547 0.216 0.943 0.348l0.563 0.2 1.985 0.728c0.485 0.177 0.8 0.325 0.943 0.447 0.132 0.111 0.215 0.275 0.215 0.46 0 0.007-0 0.014-0 0.021l0-0.001c0 0.575-0.54 0.863-1.621 0.863-1.587 0-2.536-0.707-2.845-2.12l-4.964 1.125c0.619 3.733 3.221 5.6 7.809 5.6zM117.904 6.095c1.213 0 2.151-0.287 2.813-0.861 0.66-0.573 0.992-1.303 0.992-2.187 0-0.904-0.32-1.64-0.96-2.201-0.64-0.565-1.588-0.845-2.845-0.845s-2.207 0.281-2.847 0.845c-0.64 0.563-0.96 1.297-0.96 2.203 0 0.883 0.332 1.612 0.993 2.187 0.663 0.573 1.6 0.86 2.813 0.86zM121.312 24.58v-17.425h-6.819v17.425h6.817zM131.632 24.944c2.316 0 3.969-0.84 4.963-2.517v2.153h6.816v-23.951h-6.816v8.712c-0.993-1.7-2.647-2.551-4.964-2.551-2.337 0-4.285 0.856-5.84 2.568-1.555 1.711-2.333 3.88-2.333 6.509 0 2.627 0.779 4.797 2.333 6.509 1.555 1.711 3.503 2.567 5.84 2.567zM133.485 19.744c-0.972 0-1.749-0.365-2.333-1.093-0.585-0.729-0.877-1.657-0.877-2.783 0-1.127 0.287-2.053 0.86-2.783 0.596-0.729 1.379-1.093 2.349-1.093s1.748 0.364 2.333 1.093c0.584 0.728 0.876 1.656 0.876 2.783 0 1.125-0.292 2.053-0.876 2.783-0.585 0.728-1.363 1.093-2.333 1.093zM155.749 24.944c3.463 0 6.165-1.005 8.107-3.013l-2.813-3.777c-1.389 1.127-2.956 1.689-4.699 1.689-1.323 0-2.399-0.299-3.227-0.893-0.827-0.597-1.24-1.172-1.24-1.724h12.805c0.111-0.397 0.165-0.916 0.165-1.556 0-2.739-0.899-4.903-2.696-6.493-1.799-1.591-4.097-2.385-6.9-2.385-3 0-5.371 0.895-7.113 2.684-1.743 1.788-2.615 3.941-2.615 6.459 0 2.584 0.92 4.732 2.763 6.444 1.843 1.711 4.329 2.567 7.463 2.567zM158.693 14.079h-6.816c0.044-0.817 0.397-1.44 1.059-1.872 0.661-0.431 1.445-0.645 2.349-0.645s1.688 0.22 2.349 0.663c0.663 0.441 1.015 1.060 1.059 1.855z"></path>
</symbol>
<symbol id="icon-icon-facebook" viewBox="0 0 32 32">
<path d="M30.234 0h-28.467c-0.976 0-1.766 0.79-1.766 1.766v28.469c0 0.974 0.79 1.765 1.766 1.765h15.328v-12.392h-4.173v-4.829h4.17v-3.563c0-4.133 2.525-6.384 6.213-6.384 1.766 0 3.283 0.131 3.726 0.19v4.32h-2.557c-2.006 0-2.394 0.955-2.394 2.352v3.085h4.782l-0.624 4.829h-4.16v12.392h8.157c0.973 0 1.763-0.79 1.763-1.766v-28.467c0.002-0.976-0.789-1.766-1.765-1.766z"></path>
</symbol>
<symbol id="icon-icon-hamburger" viewBox="0 0 43 32">
<path fill="#fff" style="fill: var(--color2, #fff)" d="M42.667 28.444v3.556h-42.667v-3.556h42.667zM42.667 14.222v3.556h-42.667v-3.556h42.667zM42.667 0v3.556h-42.667v-3.556h42.667z"></path>
</symbol>
</defs>
</svg>
